Coordinates
version=1
nRows=27
nColumns=12
inDegrees=yes

Units are S.I. units (second, meters, Newtons, ...)
Angles are in degrees

endheader
time	SC_y	SC_z	SC_x	AC_y	AC_z	AC_x	GH_y	GH_z	GH_yy	EL_x	PS_y
       0.0              -28.33          8.458          37.22          53.74         -5.904          2.727         -45.44           66.9         -138.2          66.72          127.2
   0.01392              -28.33          8.456          37.22          53.74         -5.902          2.725         -45.42           66.9         -138.2          66.73          127.2
   0.02784              -28.33          8.454          37.22          53.73         -5.901          2.723          -45.4          66.89         -138.1          66.73          127.2
   0.04176              -28.33          8.452          37.22          53.73         -5.899           2.72         -45.37          66.89         -138.1          66.74          127.2
   0.05567              -28.33           8.45          37.22          53.73         -5.898          2.718         -45.35          66.89         -138.1          66.74          127.1
   0.06959              -28.33          8.447          37.22          53.73         -5.896          2.715         -45.32          66.89         -138.0          66.75          127.1
   0.08351              -28.33          8.445          37.22          53.73         -5.894          2.712         -45.29          66.89         -138.0          66.76          127.1
   0.09743              -28.33          8.442          37.22          53.73         -5.892          2.709         -45.26          66.89         -138.0          66.76          127.1
    0.1113              -28.32          8.439          37.22          53.72          -5.89          2.705         -45.23          66.88         -137.9          66.77          127.1
    0.1253              -28.32          8.436          37.21          53.72         -5.887          2.702         -45.19          66.88         -137.9          66.78          127.1
    0.1392              -28.32          8.433          37.21          53.72         -5.885          2.698         -45.15          66.88         -137.8          66.79          127.0
    0.1531              -28.32          8.429          37.21          53.72         -5.882          2.693         -45.11          66.88         -137.8           66.8          127.0
     0.167              -28.32          8.425          37.21          53.71         -5.879          2.689         -45.06          66.88         -137.7          66.81          127.0
    0.1809              -28.32          8.421          37.21          53.71         -5.876          2.684         -45.01          66.87         -137.7          66.82          127.0
    0.1949              -28.32          8.416          37.21          53.71         -5.873          2.679         -44.96          66.87         -137.6          66.84          126.9
    0.2088              -28.31          8.411          37.21           53.7         -5.869          2.673          -44.9          66.87         -137.6          66.85          126.9
    0.2227              -28.31          8.406          37.21           53.7         -5.865          2.666         -44.84          66.86         -137.5          66.86          126.9
    0.2366              -28.31            8.4          37.21          53.69         -5.861           2.66         -44.77          66.86         -137.4          66.88          126.8
    0.2505              -28.31          8.394          37.21          53.69         -5.856          2.652          -44.7          66.85         -137.3           66.9          126.8
    0.2644               -28.3          8.387          37.21          53.68         -5.851          2.644         -44.62          66.85         -137.2          66.92          126.7
    0.2784               -28.3          8.379          37.21          53.68         -5.845          2.635         -44.53          66.84         -137.1          66.94          126.7
    0.2923               -28.3          8.371          37.21          53.67         -5.838          2.625         -44.43          66.84         -137.0          66.96          126.6
    0.3062              -28.29          8.361          37.21          53.66         -5.831          2.614         -44.32          66.83         -136.9          66.99          126.6
    0.3201              -28.29          8.351          37.21          53.66         -5.824          2.602          -44.2          66.83         -136.7          67.02          126.5
     0.334              -28.29           8.34          37.21          53.65         -5.815          2.588         -44.07          66.82         -136.6          67.05          126.4
     0.348              -28.28          8.327          37.21          53.64         -5.805          2.573         -43.92          66.81         -136.4          67.08          126.3
    0.3619              -28.28          8.312          37.21          53.63         -5.795          2.556         -43.75           66.8         -136.2          67.12          126.2
